<svg width="108" height="97" viewBox="0 0 108 97" fill="none" xmlns="http://www.w3.org/2000/svg">
<path d="M64.6049 40.3999C63.6673 39.4626 62.3958 38.936 61.07 38.936C59.7441 38.936 58.4726 39.4626 57.5349 40.3999L54 43.9299C53.0775 44.885 51.974 45.6469 50.754 46.171C49.534 46.695 48.2218 46.9709 46.894 46.9824C45.5662 46.994 44.2494 46.741 43.0204 46.2382C41.7915 45.7353 40.6749 44.9928 39.736 44.0539C38.7971 43.115 38.0545 41.9984 37.5517 40.7695C37.0489 39.5405 36.7959 38.2237 36.8074 36.8959C36.819 35.5681 37.0948 34.2559 37.6189 33.0359C38.143 31.8159 38.9048 30.7124 39.86 29.7899L68.0099 1.62994C74.6746 0.114075 81.6475 0.737934 87.9372 3.41281C94.2268 6.08769 99.5131 10.6774 103.044 16.5294C106.576 22.3814 108.172 29.1977 107.607 36.0091C107.041 42.8205 104.343 49.2803 99.895 54.4699L89.3549 65.1449L64.6049 40.3949V40.3999ZM9.80495 10.3399C14.9787 5.16683 21.7461 1.88984 29.0128 1.03877C36.2795 0.18771 43.6208 1.81232 49.85 5.64994L32.785 22.7199C29.0889 26.4086 26.9821 31.3964 26.9146 36.6177C26.8472 41.839 28.8244 46.8797 32.4238 50.6626C36.0233 54.4455 40.9595 56.6707 46.1777 56.8627C51.3959 57.0546 56.4823 55.1982 60.35 51.6899L61.07 51.0049L82.285 72.2149L61.07 93.4299C59.1947 95.3046 56.6516 96.3578 54 96.3578C51.3483 96.3578 48.8052 95.3046 46.93 93.4299L9.79995 56.2999C3.70561 50.2051 0.281891 41.939 0.281891 33.3199C0.281891 24.7009 3.70561 16.4348 9.79995 10.3399H9.80495Z" fill="#003882"/>
</svg>
