<svg width="113" height="91" viewBox="0 0 113 91" fill="none" xmlns="http://www.w3.org/2000/svg">
<path d="M41.65 43.4999H52.5C58.4674 43.4999 64.1903 45.8705 68.4099 50.09C72.6295 54.3096 75 60.0326 75 65.9999H39.995L40 70.9999H80V65.9999C79.9842 60.6798 78.4471 55.4751 75.57 50.9999H90C94.7263 50.9986 99.3562 52.3371 103.353 54.8602C107.349 57.3832 110.549 60.9874 112.58 65.2549C100.755 80.8599 81.61 90.9999 60 90.9999C46.195 90.9999 34.5 88.0499 25 82.8749V36.3549C31.0831 37.2263 36.8274 39.6914 41.65 43.4999ZM15 30.9999C16.2247 31.0001 17.4067 31.4497 18.3219 32.2635C19.237 33.0773 19.8217 34.1987 19.965 35.4149L20 35.9999V80.9999C20 82.326 19.4732 83.5978 18.5355 84.5355C17.5979 85.4732 16.3261 85.9999 15 85.9999H5C3.67392 85.9999 2.40215 85.4732 1.46447 84.5355C0.526784 83.5978 0 82.326 0 80.9999V35.9999C0 34.6739 0.526784 33.4021 1.46447 32.4644C2.40215 31.5267 3.67392 30.9999 5 30.9999H15ZM63.23 3.87493L65 5.64993L66.77 3.87993C67.929 2.71102 69.3076 1.78256 70.8264 1.14784C72.3452 0.513118 73.9745 0.184643 75.6206 0.181274C77.2667 0.177904 78.8973 0.499704 80.4187 1.1282C81.9402 1.7567 83.3225 2.67951 84.4863 3.84366C85.6501 5.00782 86.5725 6.39038 87.2006 7.91198C87.8287 9.43358 88.15 11.0642 88.1462 12.7104C88.1423 14.3565 87.8134 15.9857 87.1782 17.5043C86.5431 19.023 85.6142 20.4012 84.445 21.5599L65 40.9999L45.55 21.5499C44.3811 20.3909 43.4526 19.0124 42.8179 17.4935C42.1832 15.9747 41.8547 14.3455 41.8513 12.6993C41.848 11.0532 42.1698 9.42262 42.7983 7.9012C43.4268 6.37978 44.3496 4.99748 45.5137 3.83365C46.6779 2.66983 48.0604 1.74741 49.582 1.11934C51.1036 0.491274 52.7343 0.169935 54.3804 0.173771C56.0266 0.177606 57.6557 0.506541 59.1744 1.14169C60.693 1.77684 62.0713 2.7057 63.23 3.87493Z" fill="#003882"/>
</svg>
