<svg width="80" height="109" viewBox="0 0 80 109" fill="none" xmlns="http://www.w3.org/2000/svg">
<path d="M65 71.225V105.585C65.0001 106.027 64.8828 106.462 64.6602 106.844C64.4375 107.226 64.1174 107.542 63.7326 107.761C63.3478 107.979 62.912 108.091 62.4697 108.085C62.0274 108.08 61.5944 107.957 61.215 107.73L40 95L18.785 107.73C18.4052 107.958 17.9718 108.08 17.5291 108.085C17.0863 108.091 16.6502 107.978 16.2652 107.759C15.8802 107.541 15.5602 107.224 15.3379 106.841C15.1156 106.458 14.999 106.023 15 105.58V71.23C8.53074 66.0505 3.82996 58.9894 1.5473 51.0227C-0.735372 43.056 -0.48722 34.577 2.25746 26.7574C5.00213 18.9378 10.1078 12.1638 16.8689 7.37142C23.63 2.57907 31.7127 0.0050354 40 0.0050354C48.2873 0.0050354 56.37 2.57907 63.1311 7.37142C69.8922 12.1638 74.9979 18.9378 77.7426 26.7574C80.4872 34.577 80.7354 43.056 78.4527 51.0227C76.1701 58.9894 71.4693 66.0505 65 71.23V71.225ZM40 70C47.9565 70 55.5871 66.8393 61.2132 61.2132C66.8393 55.5871 70 47.9565 70 40C70 32.0435 66.8393 24.4129 61.2132 18.7868C55.5871 13.1607 47.9565 10 40 10C32.0435 10 24.4129 13.1607 18.7868 18.7868C13.1607 24.4129 10 32.0435 10 40C10 47.9565 13.1607 55.5871 18.7868 61.2132C24.4129 66.8393 32.0435 70 40 70ZM40 60C34.6957 60 29.6086 57.8929 25.8579 54.1422C22.1071 50.3914 20 45.3044 20 40C20 34.6957 22.1071 29.6086 25.8579 25.8579C29.6086 22.1072 34.6957 20 40 20C45.3043 20 50.3914 22.1072 54.1421 25.8579C57.8929 29.6086 60 34.6957 60 40C60 45.3044 57.8929 50.3914 54.1421 54.1422C50.3914 57.8929 45.3043 60 40 60Z" fill="#003882"/>
</svg>
